<svg width="111" height="111" viewBox="0 0 111 111" fill="none" xmlns="http://www.w3.org/2000/svg">
<path fill-rule="evenodd" clip-rule="evenodd" d="M100.353 1.68473C94.4661 2.61681 82.2507 3.45081 71.1636 4.62818C51.0009 6.73767 52.2764 6.49237 52.2764 8.99431C52.2764 12.7227 57.3293 19.1002 64.9333 24.9872L66.5522 26.2136C52.6689 40.5875 49.7254 44.3159 31.6721 65.7051C10.0868 91.3132 9.69428 96.219 2.9243 104.215C-1.8343 109.808 4.39604 111.623 10.0377 106.276C17.5926 99.1134 34.2722 85.7206 47.7631 75.9582C51.3443 73.4071 87.2546 46.4254 87.2546 46.4254C97.6548 56.9237 98.636 58.2483 101.089 57.6106C102.07 57.3653 102.217 57.0219 102.266 54.3237C102.512 45.9348 108.497 19.8361 109.282 8.74901C109.821 0.0167364 106.878 0.654536 100.353 1.68473ZM103.591 9.63208C101.334 16.9417 97.6058 36.712 97.0171 44.4631L96.6737 49.0255C90.149 40.1951 88.6773 37.1535 80.0922 43.6782C69.5447 51.6746 37.2157 75.6147 34.125 77.9205C24.7059 84.9848 24.7059 84.9848 29.9551 78.8526C41.0912 65.9504 69.1523 32.2477 72.0467 29.7458C72.1938 28.9608 77.6393 29.108 66.5522 19.3455C63.4616 16.6473 61.1559 14.3907 61.4012 14.2926C62.3332 13.9982 91.4245 11.1038 100.353 9.28867C103.689 8.65093 103.885 8.65093 103.591 9.63208Z" fill="#F7B13C"/>
</svg>
