<svg width="88" height="88" viewBox="0 0 88 88" fill="none" xmlns="http://www.w3.org/2000/svg">
<g clip-path="url(#clip0_4_13776)">
<path fill-rule="evenodd" clip-rule="evenodd" d="M29.1124 35.2881C30.5487 37.121 34.936 38.5035 35.964 36.8437C36.3998 36.1155 36.1939 35.842 34.0153 34.3679C28.8261 30.8747 27.9506 33.8199 29.1124 35.2881ZM44.128 30.5821C44.7102 32.401 46.6431 31.3455 46.8431 29.1091C47.0336 26.8226 46.8058 23.7939 46.4622 21.8811C46.2315 19.9689 44.2161 20.4293 43.7837 22.4692C43.2554 24.8672 43.7138 29.3224 44.128 30.5821ZM18.5618 48.09C17.7925 49.3836 25.0675 51.2776 26.6024 50.179C28.3885 48.8912 28.23 48.382 25.7602 47.6415C21.8629 46.4615 19.4377 46.6018 18.5618 48.09ZM40.5244 42.1533C40.3684 43.328 40.2791 44.8525 40.3035 45.5198C40.6768 51.4678 40.6683 51.5313 38.7658 51.5067C34.3915 51.4859 28.7307 53.491 32.4016 56.4988C34.633 58.3046 39.3458 61.1278 40.7926 62.1528C44.5826 64.8708 45.6142 65.0084 47.2312 63.048C51.224 58.1556 58.1952 52.8492 64.067 50.228C65.5249 49.5874 65.4868 49.3875 63.7039 46.7583C60.0969 41.4451 59.2419 34.2598 58.0336 32.6551C56.6743 30.8499 54.3346 34.7261 52.5088 41.787L52.3169 42.503L51.3096 42.5471C49.2455 42.6441 49.1128 43.8869 51.0516 44.8559C52.6271 45.6411 53.4633 45.6687 54.337 43.9535C54.8383 42.976 55.3837 41.4224 56.0895 39.148C56.3701 38.2509 56.6391 37.5626 56.6803 37.6173C56.8725 37.8726 59.3753 43.4743 59.389 43.4926L56.4828 45.3094C54.2428 46.8533 54.8703 48.2095 57.3743 46.8669C57.6351 46.7277 60.1518 45.2898 60.1518 45.2898C60.1518 45.2898 60.8309 46.3785 61.0191 47.1512C61.1893 47.9374 60.8505 48.4211 59.9225 48.7198C52.7066 51.1245 45.0925 60.5438 45.0745 60.5573C44.7748 60.8687 35.35 54.8502 35.409 54.4057C35.4175 54.3422 35.9728 54.2955 36.6506 54.2994C44.2187 54.2298 44.6388 53.742 43.9104 46.0899L43.5642 42.4932L44.8291 42.9408C48.5153 44.2511 50.0909 41.2646 47.2853 40.3769C46.3382 40.09 44.8526 39.7229 42.5022 39.1782C41.4379 38.9224 40.8321 39.8358 40.5244 42.1533ZM63.6652 24.3C63.3075 25.1694 62.4053 30.992 62.4773 31.9093C62.6637 33.912 64.6558 32.8977 65.3192 30.4552C66.1008 27.6093 66.8714 23.1431 66.6243 22.8148C66.1479 22.1449 64.1601 23.1274 63.6652 24.3ZM25.7916 66.5049C28.9059 65.1885 30.5369 64.2176 30.882 63.4435C31.4528 62.185 30.7159 62.1399 27.9795 63.286C27.723 63.3934 25.1523 64.3861 23.6987 65.4806C22.6579 66.2644 20.7823 68.591 25.7916 66.5049Z" fill="#F59E0B"/>
</g>
<defs>
<clipPath id="clip0_4_13776">
<rect width="62" height="63" fill="white" transform="translate(0 37.2944) rotate(-36.9791)"/>
</clipPath>
</defs>
</svg>
