<svg width="84" height="84" viewBox="0 0 84 84" fill="none" xmlns="http://www.w3.org/2000/svg">
<path d="M13.3982 18.5725C11.7048 19.9928 12.9065 21.3584 15.911 21.3584C19.1339 21.3584 23.2308 28.7875 23.2308 34.4686C23.2308 37.3091 22.8484 37.473 17.222 37.473C1.10741 37.473 -4.6283 51.2387 6.89772 62.2731C23.2854 78.0052 46.119 57.4114 38.0344 34.1954C33.8828 22.4509 19.5709 13.3831 13.3982 18.5725Z" fill="#F7B13C"/>
<path d="M79.6042 31.4097C75.0703 21.8502 60.1575 13.4924 54.094 17.0431C52.4006 18.0264 53.0562 18.955 57.2077 21.577C65.183 26.6572 67.6412 35.0149 61.1407 35.0149C42.8958 35.0149 38.4165 60.7983 55.7328 66.1516C76.4906 72.5428 89.9285 52.9868 79.6042 31.4097Z" fill="#F7B13C"/>
</svg>
